:SAMPLES-PER-SECOND 30
:FULLY-SPECIFIED
:DEGREES
922
root  -39.1676 39.8312 3.67717 -4.37393 -34.2674 8.88626
RightUpLeg  5.85024 -23.6255 -15.9573
RightLeg  16.8698 -15.9421 -3.21072
RightFoot  -14.6822 0.138176 8.1438
RightToes  1.45519e-009 0 -3.6325e-017
Spine  11.5858 4.82735 14.6513
Spine1  5.3949 9.49936 -13.7806
HEad  -25.08 0.830545 2.08904
LeftShoulder1  -0.791313 5.56507 -32.2275
LeftArm  18.0433 -2.24378 -43.1957
LeftForeArm  20.7876 -17.7318 -7.01396
LeftHand  -0.104912 8.75229 -1.75685
RightShoulder  -0.536698 -4.85566 32.6914
RightArm  29.9044 -44.976 11.9701
RightForeArm  -0.372462 6.12764 6.97644
RightHand  -0.288336 3.65172 -3.97242
LeftUpLeg  -11.8124 -5.91667 -9.14707
LeftLeg  6.49824 -30.8923 -1.59245
LeftFoot  4.2501 0.425152 -3.29653
LeftToes  -2.53752e-010 -2.07034e-011 -2.70101e-011
923
root  -39.0942 39.9235 4.01883 -4.89355 -39.0139 8.94678
RightUpLeg  5.80832 -20.0397 -15.6918
RightLeg  15.0208 -15.007 -2.4302
RightFoot  -13.6672 0.0685423 7.94069
RightToes  1.45519e-009 0 -3.6325e-017
Spine  11.6973 4.75508 14.1302
Spine1  4.93726 9.28034 -13.5488
HEad  -24.0713 -0.54299 2.53151
LeftShoulder1  -0.793542 5.54109 -32.7896
LeftArm  11.3082 -1.4305 -42.4199
LeftForeArm  28.5738 -14.2478 -8.81408
LeftHand  -0.1753 10.3152 -2.68291
RightShoulder  -0.410406 -4.56503 31.5535
RightArm  27.6053 -39.4858 12.7752
RightForeArm  -0.616852 5.30169 6.95076
RightHand  -0.239575 4.74857 -3.02637
LeftUpLeg  -11.1252 -4.10236 -8.43859
LeftLeg  6.26152 -27.7875 -1.76721
LeftFoot  4.00617 0.267133 -2.16165
LeftToes  -2.53752e-010 -2.07034e-011 -2.70101e-011
924
root  -39.0428 40.0223 4.3708 -5.90442 -44.5327 9.21708
RightUpLeg  5.95892 -16.6982 -15.503
RightLeg  12.9623 -12.9344 -1.95946
RightFoot  -12.4923 -0.00701402 7.73766
RightToes  1.45519e-009 0 -3.6325e-017
Spine  11.744 4.8719 13.5988
Spine1  4.96997 9.39331 -13.6251
HEad  -23.2035 -2.80777 2.93013
LeftShoulder1  -0.737081 5.38772 -32.9617
LeftArm  4.85341 -0.409683 -41.7858
LeftForeArm  34.4805 -11.0573 -9.73921
LeftHand  -0.204244 10.3014 -3.32291
RightShoulder  -0.43053 -4.63931 30.8549
RightArm  23.7766 -31.6763 15.4636
RightForeArm  -1.23726 4.30066 6.87149
RightHand  -0.193772 4.79078 -2.50774
LeftUpLeg  -10.0538 -2.75184 -7.82426
LeftLeg  6.08591 -23.4773 -1.49589
LeftFoot  3.50059 0.133087 -1.18562
LeftToes  -2.53752e-010 -2.07034e-011 -2.70101e-011
925
root  -38.9869 40.115 4.7284 -7.06696 -50.7032 9.91876
RightUpLeg  5.5989 -14.3493 -15.5096
RightLeg  11.017 -9.28 -1.70513
RightFoot  -11.2601 -0.0817904 7.48447
RightToes  1.45519e-009 0 -3.6325e-017
Spine  11.3495 5.0829 12.4796
Spine1  5.01143 9.40631 -13.312
HEad  -22.1146 -5.43653 2.95826
LeftShoulder1  -0.687741 5.26118 -32.9791
LeftArm  1.65366 1.55432 -41.3045
LeftForeArm  36.2308 -9.58576 -9.76254
LeftHand  -0.156139 9.76169 -2.61213
RightShoulder  -0.47234 -4.76486 30.484
RightArm  18.8087 -22.5771 19.1929
RightForeArm  -1.23745 4.1856 6.42511
RightHand  -0.143338 5.25663 -1.86744
LeftUpLeg  -8.99663 -1.37964 -7.21145
LeftLeg  5.50541 -18.6009 -1.25989
LeftFoot  3.12029 0.00186332 -0.163734
LeftToes  -2.53752e-010 -2.07034e-011 -2.70101e-011
926
root  -38.9399 40.2064 5.05687 -8.54541 -57.2825 10.9134
RightUpLeg  5.02774 -12.5749 -15.316
RightLeg  9.06832 -4.7996 -1.86713
RightFoot  -9.90036 -0.159851 7.32908
RightToes  1.45519e-009 0 -3.6325e-017
Spine  10.8845 5.2622 11.6933
Spine1  5.23359 9.50776 -13.3284
HEad  -21.0939 -7.47812 2.53664
LeftShoulder1  -0.611071 5.06529 -32.9763
LeftArm  -0.195887 3.6787 -40.8571
LeftForeArm  36.179 -9.2719 -9.39419
LeftHand  -0.166674 10.1943 -2.5676
RightShoulder  -0.479992 -4.79012 30.3409
RightArm  13.4594 -14.661 23.8578
RightForeArm  -1.08444 7.53501 5.45766
RightHand  -0.0490414 5.44538 -0.844482
LeftUpLeg  -7.91752 0.254262 -6.34866
LeftLeg  4.9809 -13.6508 -1.37935
LeftFoot  2.64423 -0.0910789 0.611806
LeftToes  -2.53752e-010 -2.07034e-011 -2.70101e-011
927
root  -38.8877 40.2679 5.36688 -10.5334 -64.1228 12.5975
RightUpLeg  3.94697 -11.1701 -15.0132
RightLeg  7.42328 0.384564 -2.37079
RightFoot  -8.70745 -0.228732 7.36167
RightToes  1.45519e-009 0 -3.6325e-017
Spine  11.0048 5.51838 11.5122
Spine1  4.56259 9.83666 -14.0609
HEad  -20.3611 -6.80302 0.85889
LeftShoulder1  -0.587416 5.00421 -32.9904
LeftArm  -1.26403 5.0776 -40.3663
LeftForeArm  36.5376 -8.86686 -9.24117
LeftHand  -0.145646 9.51805 -2.48471
RightShoulder  -0.549203 -4.95601 30.953
RightArm  11.7006 -8.64939 28.3009
RightForeArm  -1.50225 14.7299 4.86778
RightHand  0.0171596 6.18769 -0.171825
LeftUpLeg  -7.20397 1.57759 -5.51122
LeftLeg  4.88795 -8.13084 -1.51135
LeftFoot  1.99774 -0.1413 1.10426
LeftToes  -2.53752e-010 -2.07034e-011 -2.70101e-011
928
root  -38.8026 40.2916 5.67352 -13.7854 -70.5482 15.218
RightUpLeg  2.96065 -10.5521 -14.9733
RightLeg  6.43504 6.10399 -2.649
RightFoot  -7.76677 -0.284868 7.42325
RightToes  1.45519e-009 0 -3.6325e-017
Spine  11.2917 5.76135 10.5939
Spine1  4.2055 9.76104 -13.1003
HEad  -20.3174 -4.70697 -2.58477
LeftShoulder1  -0.640078 5.09582 -34.047
LeftArm  -0.887215 6.14184 -39.5052
LeftForeArm  35.7699 -9.67492 -8.99699
LeftHand  -0.132119 9.83889 -1.78342
RightShoulder  -0.52274 -4.8803 31.0278
RightArm  13.4067 -3.6971 32.616
RightForeArm  0.846762 24.3698 5.10981
RightHand  0.0863503 6.69655 0.495042
LeftUpLeg  -6.397 2.57598 -4.86483
LeftLeg  5.28884 -2.68837 -1.44804
LeftFoot  1.00093 -0.147973 1.31323
LeftToes  -2.53752e-010 -2.07034e-011 -2.70101e-011
929
root  -38.6892 40.2935 5.91656 -18.0899 -76.0135 19.2369
RightUpLeg  1.7407 -10.1543 -14.6797
RightLeg  5.48204 10.8665 -2.95981
RightFoot  -6.98945 -0.336879 7.59926
RightToes  1.45519e-009 0 -3.6325e-017
Spine  11.5546 5.62328 10.0396
Spine1  3.74158 9.46718 -12.868
HEad  -20.7035 -4.15982 -3.93476
LeftShoulder1  -0.657375 5.15102 -33.7433
LeftArm  0.235531 6.80793 -39.5425
LeftForeArm  34.0808 -11.1355 -8.62455
LeftHand  -0.248155 11.2748 -3.52785
RightShoulder  -0.608005 -5.07601 31.8395
RightArm  14.5918 0.507602 36.7757
RightForeArm  11.5125 35.0459 7.21214
RightHand  0.168317 5.43548 1.47656
LeftUpLeg  -6.27543 3.50005 -4.2181
LeftLeg  6.10312 1.83756 -1.46634
LeftFoot  0.0630588 -0.152281 1.52031
LeftToes  -2.53752e-010 -2.07034e-011 -2.70101e-011
930
root  -38.5669 40.2773 6.13222 -26.6993 -80.5791 27.3793
RightUpLeg  0.685308 -9.73383 -14.553
RightLeg  5.0269 15.0477 -3.12281
RightFoot  -6.48775 -0.378736 7.8834
RightToes  1.45519e-009 0 -3.6325e-017
Spine  11.401 5.32231 9.31728
Spine1  4.53617 9.02562 -12.2048
HEad  -21.1242 -5.5699 -3.66556
LeftShoulder1  -0.562545 4.9318 -33.2224
LeftArm  0.384609 6.48241 -40.0477
LeftForeArm  32.5405 -11.7099 -8.37927
LeftHand  -0.145558 10.493 -1.94459
RightShoulder  -0.515884 -4.84978 31.3907
RightArm  16.7256 2.9357 42.2529
RightForeArm  24.1229 45.8312 9.85749
RightHand  0.17637 4.34648 1.82455
LeftUpLeg  -5.94383 4.31681 -3.76503
LeftLeg  6.84024 5.78001 -1.40196
LeftFoot  -0.722552 -0.148164 1.64265
LeftToes  -2.53752e-010 -2.07034e-011 -2.70101e-011
931
root  -38.4147 40.2483 6.30992 -45.2812 -84.0961 44.9517
RightUpLeg  0.0643742 -8.98107 -14.529
RightLeg  5.20249 18.4111 -3.12526
RightFoot  -6.23024 -0.404571 8.0983
RightToes  1.45519e-009 0 -3.6325e-017
Spine  12.4788 4.85376 8.78791
Spine1  4.79515 8.55631 -11.9869
HEad  -22.0956 -7.66693 -2.87749
LeftShoulder1  -0.458666 4.69374 -32.4217
LeftArm  2.17314 6.03405 -40.4981
LeftForeArm  29.3915 -13.6668 -7.70537
LeftHand  -0.113736 10.8927 -1.08792
RightShoulder  -0.447487 -4.68481 30.856
RightArm  17.725 2.92781 47.5809
RightForeArm  35.1228 55.3507 13.2783
RightHand  0.187247 3.58664 2.16603
LeftUpLeg  -5.14225 5.23188 -3.35548
LeftLeg  7.66516 9.02365 -1.40282
LeftFoot  -1.44002 -0.141807 1.73579
LeftToes  -2.53752e-010 -2.07034e-011 -2.70101e-011
932
root  -38.2268 40.2215 6.44467 -74.9528 -85.782 73.9242
RightUpLeg  -0.688202 -8.15322 -14.4328
RightLeg  5.61574 20.0421 -3.00504
RightFoot  -5.96698 -0.438115 8.4536
RightToes  1.45519e-009 0 -3.6325e-017
Spine  13.3829 4.48725 7.70277
Spine1  4.8291 7.85246 -10.7094
HEad  -22.3654 -9.65569 -2.06612
LeftShoulder1  -0.386228 4.50268 -32.5281
LeftArm  5.44997 4.64074 -40.0247
LeftForeArm  26.1527 -16.0411 -6.83153
LeftHand  -0.117991 10.9298 -1.16866
RightShoulder  -0.380724 -4.52788 30.0299
RightArm  18.1982 1.22422 51.4936
RightForeArm  38.2609 61.9254 17.4855
RightHand  0.134355 3.7303 1.45402
LeftUpLeg  -4.77724 5.72825 -3.16526
LeftLeg  8.36096 11.537 -1.13426
LeftFoot  -1.82309 -0.126174 1.64971
LeftToes  -2.53752e-010 -2.07034e-011 -2.70101e-011
933
root  -38.045 40.1944 6.55341 -106.081 -86.0781 104.791
RightUpLeg  -1.59355 -7.46712 -14.1399
RightLeg  6.07874 19.486 -2.64448
RightFoot  -5.59307 -0.468236 8.5492
RightToes  1.45519e-009 0 -3.6325e-017
Spine  13.6525 3.98637 6.9731
Spine1  5.07898 7.04139 -9.62978
HEad  -22.567 -10.9407 -1.50909
LeftShoulder1  -0.341599 4.3907 -32.4059
LeftArm  8.0983 3.09717 -39.7954
LeftForeArm  22.7182 -18.4907 -5.65721
LeftHand  -0.107098 11.5141 -0.800492
RightShoulder  -0.328255 -4.39052 29.733
RightArm  18.3293 -0.983474 53.426
RightForeArm  37.3678 65.9894 21.7367
RightHand  0.0751857 4.11766 0.643529
LeftUpLeg  -4.97205 6.469 -2.72952
LeftLeg  9.15056 12.9481 -1.14746
LeftFoot  -2.17086 -0.13037 1.7917
LeftToes  -2.53752e-010 -2.07034e-011 -2.70101e-011
934
root  -37.8623 40.1965 6.63352 -127.248 -85.5421 125.776
RightUpLeg  -2.36138 -6.74535 -13.9041
RightLeg  6.66251 17.2089 -2.48171
RightFoot  -5.19324 -0.491525 8.47914
RightToes  1.45519e-009 0 -3.6325e-017
Spine  13.7096 3.51553 6.30342
Spine1  5.33075 6.27943 -8.61696
HEad  -22.4983 -12.1576 -0.657878
LeftShoulder1  -0.429526 4.63282 -31.896
LeftArm  8.47077 1.20067 -40.0692
LeftForeArm  21.6276 -20.6967 -4.55675
LeftHand  -0.0766539 11.6253 -0.231583
RightShoulder  -0.384515 -4.53336 30.2131
RightArm  19.2786 -2.70489 53.1315
RightForeArm  36.2951 67.7155 24.226
RightHand  0.0360596 4.60371 0.11442
LeftUpLeg  -4.89362 6.61958 -2.49018
LeftLeg  9.06415 14.35 -1.06477
LeftFoot  -2.123 -0.121898 1.69121
LeftToes  -2.53752e-010 -2.07034e-011 -2.70101e-011
935
root  -37.704 40.1845 6.68015 -139.576 -84.4422 138.151
RightUpLeg  -3.19625 -5.80398 -14.0826
RightLeg  7.36236 12.5867 -2.57129
RightFoot  -4.89908 -0.466994 7.69978
RightToes  1.45519e-009 0 -3.6325e-017
Spine  13.2601 3.24484 5.65892
Spine1  5.67589 5.78106 -8.00206
HEad  -22.6631 -13.0342 0.12739
LeftShoulder1  -0.460459 4.72182 -31.645
LeftArm  7.02613 -0.0536853 -39.9672
LeftForeArm  21.7637 -23.4332 -3.91614
LeftHand  -0.0724497 10.6078 -0.318466
RightShoulder  -0.430453 -4.64613 30.6119
RightArm  20.568 -3.61273 51.7059
RightForeArm  34.8496 66.9142 23.3542
RightHand  -0.0289595 3.9992 -0.624074
LeftUpLeg  -4.95088 6.59038 -2.5557
LeftLeg  8.76626 15.9298 -0.96974
LeftFoot  -1.96825 -0.118934 1.59599
LeftToes  -2.53752e-010 -2.07034e-011 -2.70101e-011
936
root  -37.5367 40.2075 6.72255 -146.898 -83.2289 145.394
RightUpLeg  -3.92526 -5.86255 -14.6946
RightLeg  8.45646 7.23639 -2.41878
RightFoot  -4.693 -0.424666 6.74031
RightToes  1.45519e-009 0 -3.6325e-017
Spine  13.432 2.94582 5.68426
Spine1  5.20984 5.50571 -8.2461
HEad  -22.2779 -13.0797 0.194123
LeftShoulder1  -0.43228 4.67241 -30.8355
LeftArm  3.05793 -0.682731 -40.2271
LeftForeArm  22.5423 -26.015 -4.36729
LeftHand  -0.0402829 9.18184 0.260814
RightShoulder  -0.504827 -4.83631 30.9527
RightArm  21.9478 -3.77122 49.8771
RightForeArm  31.2 63.1034 19.4785
RightHand  -0.000513764 4.13297 -0.284165
LeftUpLeg  -4.51043 6.56798 -2.66987
LeftLeg  7.67209 17.32 -1.10208
LeftFoot  -1.43849 -0.125957 1.55418
LeftToes  -2.53752e-010 -2.07034e-011 -2.70101e-011
